<?xml version="1.0" encoding="UTF-8" standalone="no"?>
<!DOCTYPE svg PUBLIC "-//W3C//DTD SVG 1.1//EN" "http://www.w3.org/Graphics/SVG/1.1/DTD/svg11.dtd">
<svg width="100%" height="100%" viewBox="0 0 224 224" version="1.1" xmlns="http://www.w3.org/2000/svg" xmlns:xlink="http://www.w3.org/1999/xlink" xml:space="preserve" xmlns:serif="http://www.serif.com/" style="fill-rule:evenodd;clip-rule:evenodd;stroke-linejoin:round;stroke-miterlimit:2;">
    <g transform="matrix(5.53847,0,0,5.53847,-340.323,-372.837)">
        <ellipse cx="81.669" cy="87.54" rx="19.291" ry="19.449" style="fill:rgb(247,138,0);"/>
    </g>
    <g transform="matrix(1.55255,0,0,1.18544,-9.36758,-32.9375)">
        <path d="M78.173,144.797C78.173,132.361 70.464,122.264 60.969,122.264L9.354,122.264L9.354,204.117C9.354,209.092 12.438,213.13 16.236,213.13L78.173,213.13L78.173,144.797Z" style="fill:rgb(247,138,0);"/>
    </g>
    <g id="web.svg" transform="matrix(6.49737,0,0,6.49737,110,114)">
        <g transform="matrix(1,0,0,1,-12,-12)">
            <path d="M16.36,14C16.44,13.34 16.5,12.68 16.5,12C16.5,11.32 16.44,10.66 16.36,10L19.74,10C19.9,10.64 20,11.31 20,12C20,12.69 19.9,13.36 19.74,14M14.59,19.56C15.19,18.45 15.65,17.25 15.97,16L18.92,16C17.96,17.65 16.43,18.93 14.59,19.56M14.34,14L9.66,14C9.56,13.34 9.5,12.68 9.5,12C9.5,11.32 9.56,10.65 9.66,10L14.34,10C14.43,10.65 14.5,11.32 14.5,12C14.5,12.68 14.43,13.34 14.34,14M12,19.96C11.17,18.76 10.5,17.43 10.09,16L13.91,16C13.5,17.43 12.83,18.76 12,19.96M8,8L5.08,8C6.03,6.34 7.57,5.06 9.4,4.44C8.8,5.55 8.35,6.75 8,8M5.08,16L8,16C8.35,17.25 8.8,18.45 9.4,19.56C7.57,18.93 6.03,17.65 5.08,16M4.26,14C4.1,13.36 4,12.69 4,12C4,11.31 4.1,10.64 4.26,10L7.64,10C7.56,10.66 7.5,11.32 7.5,12C7.5,12.68 7.56,13.34 7.64,14M12,4.03C12.83,5.23 13.5,6.57 13.91,8L10.09,8C10.5,6.57 11.17,5.23 12,4.03M18.92,8L15.97,8C15.65,6.75 15.19,5.55 14.59,4.44C16.43,5.07 17.96,6.34 18.92,8M12,2C6.47,2 2,6.5 2,12C2,17.486 6.514,22 12,22C17.486,22 22,17.486 22,12C22,6.514 17.486,2 12,2Z" style="fill:white;fill-rule:nonzero;"/>
        </g>
    </g>
</svg>
